<svg xmlns="http://www.w3.org/2000/svg" xmlns:xlink="http://www.w3.org/1999/xlink" version="1.1" width="256" height="256" viewBox="0 0 256 256" xml:space="preserve">

<defs>
</defs>
<g style="stroke: none; stroke-width: 0; stroke-dasharray: none; stroke-linecap: butt; stroke-linejoin: miter; stroke-miterlimit: 10; fill: none; fill-rule: nonzero; opacity: 1;" transform="translate(1.4065934065934016 1.4065934065934016) scale(2.81 2.81)" >
	<path d="M 45 90 c -8.431 0 -16.575 -2.323 -23.688 -6.74 l -15.9 6.003 c -1.469 0.557 -3.128 0.197 -4.239 -0.912 c -1.111 -1.11 -1.47 -2.768 -0.917 -4.238 l 6.063 -16.12 C 2.179 61.044 0 53.139 0 45 C 0 20.187 20.187 0 45 0 c 24.813 0 45 20.187 45 45 C 90 69.813 69.813 90 45 90 z M 21.799 74.801 c 0.799 0 1.591 0.239 2.267 0.704 C 30.245 79.754 37.483 82 45 82 c 20.402 0 37 -16.598 37 -37 C 82 24.598 65.402 8 45 8 C 24.598 8 8 24.598 8 45 c 0 7.262 2.109 14.297 6.099 20.344 c 0.706 1.069 0.856 2.412 0.405 3.611 l -3.649 9.702 l 9.532 -3.599 C 20.845 74.886 21.323 74.801 21.799 74.801 z" style="stroke: none; stroke-width: 1; stroke-dasharray: none; stroke-linecap: butt; stroke-linejoin: miter; stroke-miterlimit: 10; fill: rgb(0,0,0); fill-rule: nonzero; opacity: 1;" transform=" matrix(1 0 0 1 0 0) " stroke-linecap="round" />
	<path d="M 25.84 57.013 c -1.009 0 -1.998 -0.457 -2.65 -1.305 c -1.003 -1.306 -0.904 -3.149 0.233 -4.34 L 39.996 34.02 c 0.614 -0.643 1.46 -1.015 2.349 -1.032 c 0.919 -0.002 1.749 0.321 2.388 0.939 l 6.314 6.11 l 11.599 -5.909 c 1.439 -0.733 3.194 -0.331 4.172 0.952 c 0.977 1.284 0.897 3.084 -0.192 4.275 L 51.478 55.927 c -0.602 0.659 -1.444 1.05 -2.337 1.084 c -0.893 0.035 -1.762 -0.291 -2.413 -0.903 l -6.779 -6.367 l -12.505 6.861 C 26.938 56.88 26.386 57.013 25.84 57.013 z" style="stroke: none; stroke-width: 1; stroke-dasharray: none; stroke-linecap: butt; stroke-linejoin: miter; stroke-miterlimit: 10; fill: rgb(0,0,0); fill-rule: nonzero; opacity: 1;" transform=" matrix(1 0 0 1 0 0) " stroke-linecap="round" />
</g>
</svg>